<?xml version="1.0" standalone="no"?>
<!DOCTYPE svg PUBLIC "-//W3C//DTD SVG 20010904//EN"
 "http://www.w3.org/TR/2001/REC-SVG-20010904/DTD/svg10.dtd">
<svg version="1.0" xmlns="http://www.w3.org/2000/svg"
 width="212.000000pt" height="62.000000pt" viewBox="0 0 212.000000 62.000000"
 preserveAspectRatio="xMidYMid meet">
<metadata>
Created by potrace 1.16, written by Peter Selinger 2001-2019
</metadata>
<g transform="translate(0.000000,62.000000) scale(0.100000,-0.100000)"
fill="#000000" stroke="none">
<path d="M0 610 c0 -6 115 -10 325 -10 l325 0 0 -300 0 -300 735 0 735 0 0
310 0 310 -1060 0 c-700 0 -1060 -3 -1060 -10z m1184 -252 c-3 -13 -13 -38
-20 -57 -19 -46 -17 -50 9 -19 15 19 26 25 35 19 11 -7 11 -15 -2 -46 -22 -52
-20 -66 4 -30 24 36 26 26 4 -21 -22 -46 -50 -42 -47 6 1 33 1 34 -13 15 -8
-11 -17 -30 -21 -42 -6 -27 -18 -30 -27 -7 -6 16 -8 16 -24 0 -23 -20 -31 -20
-52 -1 -15 14 -18 14 -30 0 -29 -35 -75 -1 -64 49 12 56 33 88 57 84 35 -5 31
-59 -5 -76 -17 -8 -28 -21 -28 -33 0 -19 1 -19 26 -2 15 9 35 36 45 60 21 49
43 63 66 41 12 -12 13 -20 4 -37 -17 -30 -33 -27 -21 4 6 16 6 25 0 25 -11 0
-40 -91 -33 -103 7 -12 61 42 69 67 24 77 47 126 60 126 11 0 13 -6 8 -22z
m184 -14 c30 -34 28 -50 -12 -90 -24 -24 -43 -34 -65 -34 -23 0 -31 -5 -31
-17 0 -29 -17 -50 -30 -37 -8 8 -3 34 19 92 16 45 26 82 23 82 -4 0 -18 -7
-31 -16 -22 -16 -23 -15 -19 7 2 17 13 28 38 36 45 16 79 8 108 -23z m278 -20
c-4 -9 1 -25 9 -34 12 -13 13 -23 5 -44 -15 -41 -11 -55 6 -23 24 44 28 24 4
-22 -22 -44 -31 -49 -49 -27 -8 10 -7 24 4 56 17 48 18 60 7 60 -5 0 -18 -29
-31 -64 -20 -56 -25 -63 -44 -58 -12 3 -25 10 -29 16 -5 7 -12 4 -21 -8 -23
-31 -40 -10 -34 40 5 52 -8 59 -17 10 -8 -44 -41 -74 -64 -59 -35 23 -3 143
39 143 11 0 22 -7 25 -15 4 -8 12 -15 19 -15 7 0 15 7 19 15 3 8 12 15 21 15
18 0 18 1 -1 -45 -8 -20 -13 -42 -10 -48 2 -7 14 12 27 41 13 28 29 52 36 52
17 0 16 -8 -2 -60 -8 -24 -13 -45 -11 -48 5 -4 49 85 60 121 3 9 13 17 22 17
11 0 14 -5 10 -16z m451 -36 c8 -10 5 -18 -14 -32 l-26 -19 7 29 c6 23 5 27
-5 16 -10 -9 -11 -19 -1 -46 20 -55 -11 -94 -48 -61 -14 13 -19 13 -23 3 -3
-10 -8 -11 -25 -1 -18 11 -23 10 -31 -5 -9 -15 -12 -15 -25 -2 -12 11 -13 24
-7 53 12 50 -1 47 -19 -5 -18 -50 -41 -68 -64 -49 -20 17 -20 57 2 101 19 38
50 51 64 26 12 -21 28 -20 44 1 21 30 26 7 10 -48 -9 -29 -14 -54 -12 -56 2
-2 15 24 30 57 15 33 31 60 36 60 18 0 20 -19 5 -54 -20 -47 -18 -56 5 -27 11
13 20 31 20 41 0 10 7 26 16 34 16 17 40 11 61 -16z"/>
<path d="M90 430 l0 -40 90 0 90 0 0 -180 0 -180 45 0 45 0 0 180 0 180 90 0
90 0 0 40 0 40 -225 0 -225 0 0 -40z"/>
</g>
</svg>
